<svg xmlns="http://www.w3.org/2000/svg" xmlns:xlink="http://www.w3.org/1999/xlink" width="500" zoomAndPan="magnify" viewBox="0 0 375 374.999991" height="500" preserveAspectRatio="xMidYMid meet" version="1.0"><defs><g/></defs><g fill="#ffffff" fill-opacity="1"><g transform="translate(124.192518, 207.247405)"><g><path d="M 2.46875 -14.410156 C 2.46875 -5.847656 7.902344 1.648438 17.453125 1.648438 C 33.839844 1.648438 43.472656 -12.84375 43.472656 -32.851562 C 43.472656 -36.804688 43.308594 -40.097656 42.980469 -42.730469 L 53.1875 -15.808594 C 56.316406 -7.492188 56.730469 -0.824219 45.121094 -0.824219 L 45.121094 0 L 72.125 0 L 72.125 -0.824219 C 67.101562 -0.824219 64.46875 -5.351562 60.84375 -14.410156 L 34.5 -83.980469 L 33.675781 -83.980469 C 28.488281 -70.3125 25.441406 -62.164062 20.417969 -48.90625 C 19.597656 -46.765625 20.007812 -44.542969 22.3125 -44.542969 C 27.007812 -44.542969 29.476562 -53.1875 33.429688 -53.1875 C 34.5 -53.1875 35.402344 -52.53125 35.402344 -50.964844 C 35.402344 -42.402344 2.46875 -34.664062 2.46875 -14.410156 Z M 9.46875 -15.972656 C 9.46875 -36.308594 36.308594 -39.769531 36.308594 -50.800781 C 36.308594 -52.941406 35.15625 -54.011719 33.59375 -54.011719 C 29.230469 -54.011719 26.183594 -45.367188 22.394531 -45.367188 C 21.078125 -45.367188 20.417969 -46.355469 21.488281 -49.238281 L 30.957031 -74.429688 L 40.921875 -48.164062 C 42.402344 -43.308594 42.648438 -38.78125 42.648438 -32.6875 C 42.648438 -19.183594 36.144531 -2.304688 22.394531 -2.304688 C 14.328125 -2.304688 9.46875 -8.234375 9.46875 -15.972656 Z M 9.46875 -15.972656 "/></g></g></g><g fill="#ffffff" fill-opacity="1"><g transform="translate(181.734467, 207.247405)"><g><path d="M 2.46875 -81.511719 C 9.550781 -81.511719 10.042969 -75.664062 10.042969 -59.445312 L 10.042969 -22.890625 C 10.042969 -6.667969 9.550781 -0.824219 2.46875 -0.824219 L 2.46875 0 L 24.617188 0 L 24.617188 -0.824219 C 17.539062 -0.824219 17.042969 -6.667969 17.042969 -22.890625 L 17.042969 -36.226562 C 20.582031 -34.664062 28.734375 -32.359375 35.980469 -32.359375 C 54.257812 -32.359375 64.140625 -44.871094 64.140625 -58.292969 C 64.140625 -72.949219 54.339844 -83.980469 36.804688 -83.980469 C 27.253906 -83.980469 21.40625 -82.335938 12.351562 -82.335938 L 2.46875 -82.335938 Z M 17.042969 -37.050781 L 17.042969 -80.195312 C 22.066406 -82.003906 26.019531 -82.828125 32.109375 -82.828125 C 47.425781 -82.828125 57.058594 -73.113281 57.058594 -58.210938 C 57.058594 -48.332031 50.882812 -34.003906 34.5 -34.003906 C 27.335938 -34.003906 21.242188 -35.320312 17.042969 -37.050781 Z M 17.042969 -37.050781 "/></g></g></g><g fill="#ffffff" fill-opacity="1"><g transform="translate(102.634978, 233.213363)"><g><path d="M 1.65625 -9.09375 L 5.171875 -9.09375 C 6.117188 -9.09375 6.957031 -8.898438 7.6875 -8.515625 C 8.414062 -8.128906 8.984375 -7.585938 9.390625 -6.890625 C 9.796875 -6.203125 10 -5.421875 10 -4.546875 C 10 -3.671875 9.796875 -2.890625 9.390625 -2.203125 C 8.984375 -1.515625 8.414062 -0.972656 7.6875 -0.578125 C 6.957031 -0.191406 6.117188 0 5.171875 0 L 1.65625 0 Z M 5.140625 -0.40625 C 6.023438 -0.40625 6.800781 -0.582031 7.46875 -0.9375 C 8.132812 -1.289062 8.648438 -1.78125 9.015625 -2.40625 C 9.378906 -3.039062 9.5625 -3.753906 9.5625 -4.546875 C 9.5625 -5.347656 9.378906 -6.0625 9.015625 -6.6875 C 8.648438 -7.3125 8.132812 -7.800781 7.46875 -8.15625 C 6.800781 -8.519531 6.023438 -8.703125 5.140625 -8.703125 L 2.109375 -8.703125 L 2.109375 -0.40625 Z M 5.140625 -0.40625 "/></g></g></g><g fill="#ffffff" fill-opacity="1"><g transform="translate(117.724751, 233.213363)"><g><path d="M 1.65625 -9.09375 L 2.109375 -9.09375 L 2.109375 0 L 1.65625 0 Z M 1.65625 -9.09375 "/></g></g></g><g fill="#ffffff" fill-opacity="1"><g transform="translate(125.848665, 233.213363)"><g><path d="M 3.96875 0.046875 C 3.3125 0.046875 2.6875 -0.0664062 2.09375 -0.296875 C 1.5 -0.535156 1.039062 -0.835938 0.71875 -1.203125 L 0.953125 -1.515625 C 1.253906 -1.171875 1.675781 -0.890625 2.21875 -0.671875 C 2.757812 -0.453125 3.335938 -0.34375 3.953125 -0.34375 C 4.859375 -0.34375 5.539062 -0.519531 6 -0.875 C 6.46875 -1.238281 6.703125 -1.703125 6.703125 -2.265625 C 6.703125 -2.691406 6.582031 -3.035156 6.34375 -3.296875 C 6.101562 -3.566406 5.800781 -3.769531 5.4375 -3.90625 C 5.082031 -4.039062 4.597656 -4.179688 3.984375 -4.328125 C 3.328125 -4.492188 2.800781 -4.65625 2.40625 -4.8125 C 2.007812 -4.96875 1.671875 -5.203125 1.390625 -5.515625 C 1.109375 -5.835938 0.96875 -6.269531 0.96875 -6.8125 C 0.96875 -7.238281 1.082031 -7.628906 1.3125 -7.984375 C 1.539062 -8.335938 1.882812 -8.617188 2.34375 -8.828125 C 2.8125 -9.046875 3.390625 -9.15625 4.078125 -9.15625 C 4.578125 -9.15625 5.066406 -9.078125 5.546875 -8.921875 C 6.023438 -8.773438 6.429688 -8.570312 6.765625 -8.3125 L 6.578125 -7.96875 C 6.222656 -8.226562 5.828125 -8.425781 5.390625 -8.5625 C 4.953125 -8.695312 4.519531 -8.765625 4.09375 -8.765625 C 3.207031 -8.765625 2.535156 -8.578125 2.078125 -8.203125 C 1.628906 -7.835938 1.40625 -7.375 1.40625 -6.8125 C 1.40625 -6.375 1.523438 -6.019531 1.765625 -5.75 C 2.015625 -5.488281 2.316406 -5.285156 2.671875 -5.140625 C 3.035156 -5.003906 3.523438 -4.863281 4.140625 -4.71875 C 4.796875 -4.550781 5.320312 -4.390625 5.71875 -4.234375 C 6.113281 -4.085938 6.445312 -3.851562 6.71875 -3.53125 C 7 -3.21875 7.140625 -2.800781 7.140625 -2.28125 C 7.140625 -1.851562 7.023438 -1.460938 6.796875 -1.109375 C 6.566406 -0.753906 6.210938 -0.472656 5.734375 -0.265625 C 5.253906 -0.0546875 4.664062 0.046875 3.96875 0.046875 Z M 3.96875 0.046875 "/></g></g></g><g fill="#ffffff" fill-opacity="1"><g transform="translate(138.053325, 233.213363)"><g><path d="M 7.8125 -0.40625 L 7.8125 0 L 1.65625 0 L 1.65625 -9.09375 L 7.625 -9.09375 L 7.625 -8.703125 L 2.109375 -8.703125 L 2.109375 -4.828125 L 7.046875 -4.828125 L 7.046875 -4.421875 L 2.109375 -4.421875 L 2.109375 -0.40625 Z M 7.8125 -0.40625 "/></g></g></g><g fill="#ffffff" fill-opacity="1"><g transform="translate(151.089729, 233.213363)"><g><path d="M 8.9375 -9.09375 L 8.9375 0 L 8.5625 0 L 2.109375 -8.296875 L 2.109375 0 L 1.65625 0 L 1.65625 -9.09375 L 2.03125 -9.09375 L 8.484375 -0.8125 L 8.484375 -9.09375 Z M 6.140625 -9.96875 C 5.953125 -9.96875 5.789062 -10.007812 5.65625 -10.09375 C 5.519531 -10.175781 5.363281 -10.300781 5.1875 -10.46875 C 5.050781 -10.59375 4.925781 -10.691406 4.8125 -10.765625 C 4.707031 -10.835938 4.597656 -10.875 4.484375 -10.875 C 4.273438 -10.875 4.113281 -10.796875 4 -10.640625 C 3.882812 -10.484375 3.816406 -10.273438 3.796875 -10.015625 L 3.46875 -10.015625 C 3.488281 -10.378906 3.585938 -10.664062 3.765625 -10.875 C 3.941406 -11.09375 4.175781 -11.203125 4.46875 -11.203125 C 4.65625 -11.203125 4.8125 -11.160156 4.9375 -11.078125 C 5.070312 -10.992188 5.234375 -10.875 5.421875 -10.71875 C 5.554688 -10.582031 5.675781 -10.476562 5.78125 -10.40625 C 5.894531 -10.34375 6.007812 -10.3125 6.125 -10.3125 C 6.332031 -10.3125 6.492188 -10.382812 6.609375 -10.53125 C 6.722656 -10.6875 6.789062 -10.890625 6.8125 -11.140625 L 7.140625 -11.140625 C 7.117188 -10.796875 7.019531 -10.515625 6.84375 -10.296875 C 6.664062 -10.078125 6.429688 -9.96875 6.140625 -9.96875 Z M 6.140625 -9.96875 "/></g></g></g><g fill="#ffffff" fill-opacity="1"><g transform="translate(166.036553, 233.213363)"><g><path d="M 7.234375 -2.671875 L 1.796875 -2.671875 L 0.578125 0 L 0.09375 0 L 4.296875 -9.09375 L 4.734375 -9.09375 L 8.9375 0 L 8.46875 0 Z M 7.078125 -3.046875 L 4.53125 -8.59375 L 1.96875 -3.046875 Z M 7.078125 -3.046875 "/></g></g></g><g fill="#ffffff" fill-opacity="1"><g transform="translate(179.436846, 233.213363)"><g><path d="M 1.65625 -9.09375 L 5.171875 -9.09375 C 6.117188 -9.09375 6.957031 -8.898438 7.6875 -8.515625 C 8.414062 -8.128906 8.984375 -7.585938 9.390625 -6.890625 C 9.796875 -6.203125 10 -5.421875 10 -4.546875 C 10 -3.671875 9.796875 -2.890625 9.390625 -2.203125 C 8.984375 -1.515625 8.414062 -0.972656 7.6875 -0.578125 C 6.957031 -0.191406 6.117188 0 5.171875 0 L 1.65625 0 Z M 5.140625 -0.40625 C 6.023438 -0.40625 6.800781 -0.582031 7.46875 -0.9375 C 8.132812 -1.289062 8.648438 -1.78125 9.015625 -2.40625 C 9.378906 -3.039062 9.5625 -3.753906 9.5625 -4.546875 C 9.5625 -5.347656 9.378906 -6.0625 9.015625 -6.6875 C 8.648438 -7.3125 8.132812 -7.800781 7.46875 -8.15625 C 6.800781 -8.519531 6.023438 -8.703125 5.140625 -8.703125 L 2.109375 -8.703125 L 2.109375 -0.40625 Z M 5.140625 -0.40625 "/></g></g></g><g fill="#ffffff" fill-opacity="1"><g transform="translate(194.526619, 233.213363)"><g><path d="M 5.4375 0.046875 C 4.550781 0.046875 3.75 -0.148438 3.03125 -0.546875 C 2.320312 -0.941406 1.757812 -1.488281 1.34375 -2.1875 C 0.9375 -2.894531 0.734375 -3.679688 0.734375 -4.546875 C 0.734375 -5.410156 0.9375 -6.191406 1.34375 -6.890625 C 1.757812 -7.597656 2.320312 -8.148438 3.03125 -8.546875 C 3.75 -8.953125 4.550781 -9.15625 5.4375 -9.15625 C 6.320312 -9.15625 7.125 -8.953125 7.84375 -8.546875 C 8.5625 -8.148438 9.125 -7.597656 9.53125 -6.890625 C 9.9375 -6.191406 10.140625 -5.410156 10.140625 -4.546875 C 10.140625 -3.679688 9.9375 -2.894531 9.53125 -2.1875 C 9.125 -1.488281 8.5625 -0.941406 7.84375 -0.546875 C 7.125 -0.148438 6.320312 0.046875 5.4375 0.046875 Z M 5.4375 -0.34375 C 6.226562 -0.34375 6.945312 -0.523438 7.59375 -0.890625 C 8.25 -1.253906 8.765625 -1.753906 9.140625 -2.390625 C 9.515625 -3.035156 9.703125 -3.753906 9.703125 -4.546875 C 9.703125 -5.335938 9.515625 -6.050781 9.140625 -6.6875 C 8.765625 -7.332031 8.25 -7.835938 7.59375 -8.203125 C 6.945312 -8.566406 6.226562 -8.75 5.4375 -8.75 C 4.632812 -8.75 3.910156 -8.566406 3.265625 -8.203125 C 2.617188 -7.835938 2.109375 -7.332031 1.734375 -6.6875 C 1.367188 -6.050781 1.1875 -5.335938 1.1875 -4.546875 C 1.1875 -3.753906 1.367188 -3.035156 1.734375 -2.390625 C 2.109375 -1.753906 2.617188 -1.253906 3.265625 -0.890625 C 3.910156 -0.523438 4.632812 -0.34375 5.4375 -0.34375 Z M 5.4375 -0.34375 "/></g></g></g><g fill="#ffffff" fill-opacity="1"><g transform="translate(209.75935, 233.213363)"><g><path d="M 8.0625 0 L 5.8125 -3.140625 C 5.519531 -3.085938 5.191406 -3.0625 4.828125 -3.0625 L 2.109375 -3.0625 L 2.109375 0 L 1.65625 0 L 1.65625 -9.09375 L 4.828125 -9.09375 C 5.960938 -9.09375 6.847656 -8.828125 7.484375 -8.296875 C 8.117188 -7.765625 8.4375 -7.023438 8.4375 -6.078125 C 8.4375 -5.347656 8.25 -4.738281 7.875 -4.25 C 7.5 -3.757812 6.957031 -3.421875 6.25 -3.234375 L 8.578125 0 Z M 4.84375 -3.453125 C 5.863281 -3.453125 6.644531 -3.679688 7.1875 -4.140625 C 7.738281 -4.597656 8.015625 -5.242188 8.015625 -6.078125 C 8.015625 -6.910156 7.738281 -7.554688 7.1875 -8.015625 C 6.644531 -8.472656 5.863281 -8.703125 4.84375 -8.703125 L 2.109375 -8.703125 L 2.109375 -3.453125 Z M 4.84375 -3.453125 "/></g></g></g><g fill="#ffffff" fill-opacity="1"><g transform="translate(223.445556, 233.213363)"><g/></g></g><g fill="#ffffff" fill-opacity="1"><g transform="translate(231.088607, 233.213363)"><g><path d="M 13.578125 -9.09375 L 10.484375 0 L 10.03125 0 L 7.078125 -8.484375 L 4.125 0 L 3.671875 0 L 0.5625 -9.09375 L 1.03125 -9.09375 L 3.90625 -0.640625 L 6.859375 -9.09375 L 7.296875 -9.09375 L 10.25 -0.625 L 13.140625 -9.09375 Z M 13.578125 -9.09375 "/></g></g></g><g fill="#ffffff" fill-opacity="1"><g transform="translate(249.583333, 233.213363)"><g><path d="M 7.8125 -0.40625 L 7.8125 0 L 1.65625 0 L 1.65625 -9.09375 L 7.625 -9.09375 L 7.625 -8.703125 L 2.109375 -8.703125 L 2.109375 -4.828125 L 7.046875 -4.828125 L 7.046875 -4.421875 L 2.109375 -4.421875 L 2.109375 -0.40625 Z M 7.8125 -0.40625 "/></g></g></g><g fill="#ffffff" fill-opacity="1"><g transform="translate(262.619732, 233.213363)"><g><path d="M 6.765625 -4.6875 C 7.484375 -4.570312 8.023438 -4.320312 8.390625 -3.9375 C 8.753906 -3.550781 8.9375 -3.035156 8.9375 -2.390625 C 8.9375 -1.609375 8.65625 -1.015625 8.09375 -0.609375 C 7.539062 -0.203125 6.710938 0 5.609375 0 L 1.65625 0 L 1.65625 -9.09375 L 5.359375 -9.09375 C 6.316406 -9.09375 7.066406 -8.894531 7.609375 -8.5 C 8.160156 -8.101562 8.4375 -7.53125 8.4375 -6.78125 C 8.4375 -6.238281 8.285156 -5.789062 7.984375 -5.4375 C 7.691406 -5.082031 7.285156 -4.832031 6.765625 -4.6875 Z M 2.109375 -8.703125 L 2.109375 -4.8125 L 5.375 -4.8125 C 6.207031 -4.8125 6.851562 -4.976562 7.3125 -5.3125 C 7.78125 -5.644531 8.015625 -6.128906 8.015625 -6.765625 C 8.015625 -7.390625 7.78125 -7.867188 7.3125 -8.203125 C 6.851562 -8.535156 6.207031 -8.703125 5.375 -8.703125 Z M 5.640625 -0.390625 C 6.585938 -0.390625 7.296875 -0.550781 7.765625 -0.875 C 8.242188 -1.207031 8.484375 -1.71875 8.484375 -2.40625 C 8.484375 -3.09375 8.242188 -3.601562 7.765625 -3.9375 C 7.296875 -4.269531 6.585938 -4.4375 5.640625 -4.4375 L 2.109375 -4.4375 L 2.109375 -0.390625 Z M 5.640625 -0.390625 "/></g></g></g><path stroke-linecap="butt" transform="matrix(0.748052, 0, 0, 0.75, 22.457935, 229.088363)" fill="none" stroke-linejoin="miter" d="M -0.00120764 0.501974 L 66.18634 0.501974 " stroke="#ffffff" stroke-width="1" stroke-opacity="1" stroke-miterlimit="4"/><path stroke-linecap="butt" transform="matrix(0.748052, 0, 0, 0.75, 302.901899, 228.713363)" fill="none" stroke-linejoin="miter" d="M 0.000594532 0.501974 L 66.188142 0.501974 " stroke="#ffffff" stroke-width="1" stroke-opacity="1" stroke-miterlimit="4"/></svg>