<svg xmlns="http://www.w3.org/2000/svg" xmlns:xlink="http://www.w3.org/1999/xlink" width="500" zoomAndPan="magnify" viewBox="0 0 375 374.999991" height="500" preserveAspectRatio="xMidYMid meet" version="1.0"><defs><g/></defs><g fill="#000000" fill-opacity="1"><g transform="translate(86.268455, 239.428862)"><g><path d="M 145.546875 -20.015625 C 147.609375 -14.765625 149.988281 -10.945312 152.6875 -8.5625 C 155.382812 -6.1875 158.003906 -4.921875 160.546875 -4.765625 L 160.546875 0 C 151.015625 -0.476562 138.945312 -0.71875 124.34375 -0.71875 C 108.144531 -0.71875 96.078125 -0.476562 88.140625 0 L 88.140625 -4.765625 C 94.171875 -5.078125 98.457031 -5.828125 101 -7.015625 C 103.539062 -8.210938 104.8125 -10.320312 104.8125 -13.34375 C 104.8125 -16.195312 103.859375 -20.003906 101.953125 -24.765625 L 87.65625 -63.84375 L 35.734375 -63.84375 L 29.53125 -47.40625 C 25.09375 -35.96875 22.875 -27.15625 22.875 -20.96875 C 22.875 -15.082031 24.660156 -10.988281 28.234375 -8.6875 C 31.804688 -6.382812 37.082031 -5.078125 44.0625 -4.765625 L 44.0625 0 C 33.269531 -0.476562 23.425781 -0.71875 14.53125 -0.71875 C 7.226562 -0.71875 1.191406 -0.476562 -3.578125 0 L -3.578125 -4.765625 C 4.203125 -6.191406 11.03125 -14.53125 16.90625 -29.78125 L 71.21875 -169.125 C 72.96875 -168.96875 75.75 -168.890625 79.5625 -168.890625 C 83.375 -168.890625 86.070312 -168.96875 87.65625 -169.125 Z M 85.984375 -68.609375 L 62.40625 -132.921875 L 37.640625 -68.609375 Z M 85.984375 -68.609375 "/></g></g></g><g fill="#ffffff" fill-opacity="1"><g transform="translate(148.415576, 253.599935)"><g><path d="M 55.21875 -58.9375 L 55.21875 -23.078125 C 55.21875 -17.585938 55.800781 -13.570312 56.96875 -11.03125 C 58.144531 -8.488281 60.207031 -6.800781 63.15625 -5.96875 C 66.113281 -5.144531 70.820312 -4.664062 77.28125 -4.53125 L 77.28125 0 C 60.375 -0.414062 47.800781 -0.625 39.5625 -0.625 C 32.695312 -0.625 24.039062 -0.484375 13.59375 -0.203125 L 7 0 L 7 -4.125 C 11.539062 -4.394531 14.875 -4.941406 17 -5.765625 C 19.125 -6.585938 20.5625 -8.164062 21.3125 -10.5 C 22.070312 -12.84375 22.453125 -16.625 22.453125 -21.84375 L 22.453125 -124.046875 C 22.453125 -129.265625 22.070312 -133.039062 21.3125 -135.375 C 20.5625 -137.71875 19.125 -139.300781 17 -140.125 C 14.875 -140.945312 11.539062 -141.492188 7 -141.765625 L 7 -145.890625 C 14.007812 -145.484375 24.453125 -145.28125 38.328125 -145.28125 L 61.203125 -145.484375 C 63.953125 -145.617188 67.109375 -145.6875 70.671875 -145.6875 C 89.222656 -145.6875 103.375 -142.007812 113.125 -134.65625 C 122.882812 -127.3125 127.765625 -117.457031 127.765625 -105.09375 C 127.765625 -97.539062 125.835938 -90.296875 121.984375 -83.359375 C 118.140625 -76.421875 111.648438 -70.613281 102.515625 -65.9375 C 93.378906 -61.269531 81.253906 -58.9375 66.140625 -58.9375 Z M 68 -141.765625 C 64.289062 -141.765625 61.578125 -141.285156 59.859375 -140.328125 C 58.140625 -139.367188 56.9375 -137.648438 56.25 -135.171875 C 55.5625 -132.703125 55.21875 -128.992188 55.21875 -124.046875 L 55.21875 -63.0625 L 64.078125 -63.0625 C 75.210938 -63.0625 82.90625 -66.628906 87.15625 -73.765625 C 91.414062 -80.910156 93.546875 -90.597656 93.546875 -102.828125 C 93.546875 -116.148438 91.585938 -125.96875 87.671875 -132.28125 C 83.765625 -138.601562 77.207031 -141.765625 68 -141.765625 Z M 68 -141.765625 "/></g></g></g><g fill="#000000" fill-opacity="1"><g transform="translate(141.991768, 253.150739)"><g><path d="M 55.21875 -58.9375 L 55.21875 -23.078125 C 55.21875 -17.585938 55.800781 -13.570312 56.96875 -11.03125 C 58.144531 -8.488281 60.207031 -6.800781 63.15625 -5.96875 C 66.113281 -5.144531 70.820312 -4.664062 77.28125 -4.53125 L 77.28125 0 C 60.375 -0.414062 47.800781 -0.625 39.5625 -0.625 C 32.695312 -0.625 24.039062 -0.484375 13.59375 -0.203125 L 7 0 L 7 -4.125 C 11.539062 -4.394531 14.875 -4.941406 17 -5.765625 C 19.125 -6.585938 20.5625 -8.164062 21.3125 -10.5 C 22.070312 -12.84375 22.453125 -16.625 22.453125 -21.84375 L 22.453125 -124.046875 C 22.453125 -129.265625 22.070312 -133.039062 21.3125 -135.375 C 20.5625 -137.71875 19.125 -139.300781 17 -140.125 C 14.875 -140.945312 11.539062 -141.492188 7 -141.765625 L 7 -145.890625 C 14.007812 -145.484375 24.453125 -145.28125 38.328125 -145.28125 L 61.203125 -145.484375 C 63.953125 -145.617188 67.109375 -145.6875 70.671875 -145.6875 C 89.222656 -145.6875 103.375 -142.007812 113.125 -134.65625 C 122.882812 -127.3125 127.765625 -117.457031 127.765625 -105.09375 C 127.765625 -97.539062 125.835938 -90.296875 121.984375 -83.359375 C 118.140625 -76.421875 111.648438 -70.613281 102.515625 -65.9375 C 93.378906 -61.269531 81.253906 -58.9375 66.140625 -58.9375 Z M 68 -141.765625 C 64.289062 -141.765625 61.578125 -141.285156 59.859375 -140.328125 C 58.140625 -139.367188 56.9375 -137.648438 56.25 -135.171875 C 55.5625 -132.703125 55.21875 -128.992188 55.21875 -124.046875 L 55.21875 -63.0625 L 64.078125 -63.0625 C 75.210938 -63.0625 82.90625 -66.628906 87.15625 -73.765625 C 91.414062 -80.910156 93.546875 -90.597656 93.546875 -102.828125 C 93.546875 -116.148438 91.585938 -125.96875 87.671875 -132.28125 C 83.765625 -138.601562 77.207031 -141.765625 68 -141.765625 Z M 68 -141.765625 "/></g></g></g><g fill="#000000" fill-opacity="1"><g transform="translate(112.716956, 320.685272)"><g><path d="M 12.3125 -8.015625 L 9.609375 0 L 8.71875 0 L 6.375 -6.84375 L 4.015625 0 L 3.125 0 L 0.421875 -8.015625 L 1.296875 -8.015625 L 3.609375 -1.125 L 6 -8.015625 L 6.796875 -8.015625 L 9.15625 -1.09375 L 11.5 -8.015625 Z M 12.3125 -8.015625 "/></g></g></g><g fill="#000000" fill-opacity="1"><g transform="translate(130.514409, 320.685272)"><g><path d="M 6.96875 -0.734375 L 6.96875 0 L 1.3125 0 L 1.3125 -8.015625 L 6.796875 -8.015625 L 6.796875 -7.28125 L 2.15625 -7.28125 L 2.15625 -4.4375 L 6.296875 -4.4375 L 6.296875 -3.703125 L 2.15625 -3.703125 L 2.15625 -0.734375 Z M 6.96875 -0.734375 "/></g></g></g><g fill="#000000" fill-opacity="1"><g transform="translate(143.251285, 320.685272)"><g><path d="M 6.359375 -4.140625 C 6.878906 -4.023438 7.28125 -3.796875 7.5625 -3.453125 C 7.851562 -3.109375 8 -2.671875 8 -2.140625 C 8 -1.453125 7.742188 -0.921875 7.234375 -0.546875 C 6.734375 -0.179688 5.988281 0 5 0 L 1.3125 0 L 1.3125 -8.015625 L 4.765625 -8.015625 C 5.660156 -8.015625 6.351562 -7.832031 6.84375 -7.46875 C 7.332031 -7.113281 7.578125 -6.609375 7.578125 -5.953125 C 7.578125 -5.515625 7.46875 -5.140625 7.25 -4.828125 C 7.03125 -4.515625 6.734375 -4.285156 6.359375 -4.140625 Z M 2.15625 -7.3125 L 2.15625 -4.40625 L 4.703125 -4.40625 C 5.359375 -4.40625 5.859375 -4.53125 6.203125 -4.78125 C 6.554688 -5.03125 6.734375 -5.390625 6.734375 -5.859375 C 6.734375 -6.335938 6.554688 -6.695312 6.203125 -6.9375 C 5.859375 -7.1875 5.359375 -7.3125 4.703125 -7.3125 Z M 4.984375 -0.703125 C 5.703125 -0.703125 6.242188 -0.820312 6.609375 -1.0625 C 6.972656 -1.3125 7.15625 -1.691406 7.15625 -2.203125 C 7.15625 -3.203125 6.429688 -3.703125 4.984375 -3.703125 L 2.15625 -3.703125 L 2.15625 -0.703125 Z M 4.984375 -0.703125 "/></g></g></g><g fill="#000000" fill-opacity="1"><g transform="translate(156.961354, 320.685272)"><g/></g></g><g fill="#000000" fill-opacity="1"><g transform="translate(165.038379, 320.685272)"><g><path d="M 1.3125 -8.015625 L 4.5625 -8.015625 C 5.414062 -8.015625 6.164062 -7.84375 6.8125 -7.5 C 7.457031 -7.164062 7.957031 -6.691406 8.3125 -6.078125 C 8.675781 -5.472656 8.859375 -4.785156 8.859375 -4.015625 C 8.859375 -3.234375 8.675781 -2.535156 8.3125 -1.921875 C 7.957031 -1.316406 7.457031 -0.84375 6.8125 -0.5 C 6.164062 -0.164062 5.414062 0 4.5625 0 L 1.3125 0 Z M 4.53125 -0.734375 C 5.226562 -0.734375 5.835938 -0.867188 6.359375 -1.140625 C 6.890625 -1.421875 7.300781 -1.804688 7.59375 -2.296875 C 7.882812 -2.796875 8.03125 -3.367188 8.03125 -4.015625 C 8.03125 -4.648438 7.882812 -5.210938 7.59375 -5.703125 C 7.300781 -6.203125 6.890625 -6.585938 6.359375 -6.859375 C 5.835938 -7.140625 5.226562 -7.28125 4.53125 -7.28125 L 2.15625 -7.28125 L 2.15625 -0.734375 Z M 4.53125 -0.734375 "/></g></g></g><g fill="#000000" fill-opacity="1"><g transform="translate(179.572787, 320.685272)"><g><path d="M 6.96875 -0.734375 L 6.96875 0 L 1.3125 0 L 1.3125 -8.015625 L 6.796875 -8.015625 L 6.796875 -7.28125 L 2.15625 -7.28125 L 2.15625 -4.4375 L 6.296875 -4.4375 L 6.296875 -3.703125 L 2.15625 -3.703125 L 2.15625 -0.734375 Z M 6.96875 -0.734375 "/></g></g></g><g fill="#000000" fill-opacity="1"><g transform="translate(192.309659, 320.685272)"><g><path d="M 3.515625 0.0625 C 2.921875 0.0625 2.347656 -0.03125 1.796875 -0.21875 C 1.253906 -0.40625 0.832031 -0.65625 0.53125 -0.96875 L 0.875 -1.625 C 1.164062 -1.332031 1.550781 -1.097656 2.03125 -0.921875 C 2.507812 -0.742188 3.003906 -0.65625 3.515625 -0.65625 C 4.234375 -0.65625 4.769531 -0.785156 5.125 -1.046875 C 5.488281 -1.304688 5.671875 -1.648438 5.671875 -2.078125 C 5.671875 -2.390625 5.570312 -2.640625 5.375 -2.828125 C 5.175781 -3.023438 4.9375 -3.175781 4.65625 -3.28125 C 4.375 -3.382812 3.984375 -3.5 3.484375 -3.625 C 2.878906 -3.769531 2.394531 -3.910156 2.03125 -4.046875 C 1.675781 -4.191406 1.367188 -4.410156 1.109375 -4.703125 C 0.859375 -4.992188 0.734375 -5.390625 0.734375 -5.890625 C 0.734375 -6.296875 0.835938 -6.660156 1.046875 -6.984375 C 1.265625 -7.316406 1.59375 -7.582031 2.03125 -7.78125 C 2.476562 -7.976562 3.03125 -8.078125 3.6875 -8.078125 C 4.144531 -8.078125 4.59375 -8.015625 5.03125 -7.890625 C 5.46875 -7.765625 5.847656 -7.59375 6.171875 -7.375 L 5.890625 -6.703125 C 5.554688 -6.921875 5.195312 -7.082031 4.8125 -7.1875 C 4.425781 -7.300781 4.050781 -7.359375 3.6875 -7.359375 C 2.988281 -7.359375 2.457031 -7.222656 2.09375 -6.953125 C 1.738281 -6.679688 1.5625 -6.332031 1.5625 -5.90625 C 1.5625 -5.582031 1.660156 -5.320312 1.859375 -5.125 C 2.054688 -4.9375 2.300781 -4.789062 2.59375 -4.6875 C 2.882812 -4.582031 3.28125 -4.472656 3.78125 -4.359375 C 4.363281 -4.210938 4.835938 -4.066406 5.203125 -3.921875 C 5.566406 -3.773438 5.875 -3.5625 6.125 -3.28125 C 6.375 -3 6.5 -2.613281 6.5 -2.125 C 6.5 -1.71875 6.390625 -1.347656 6.171875 -1.015625 C 5.960938 -0.679688 5.628906 -0.414062 5.171875 -0.21875 C 4.722656 -0.03125 4.171875 0.0625 3.515625 0.0625 Z M 3.515625 0.0625 "/></g></g></g><g fill="#000000" fill-opacity="1"><g transform="translate(204.428276, 320.685272)"><g><path d="M 1.3125 -8.015625 L 2.15625 -8.015625 L 2.15625 0 L 1.3125 0 Z M 1.3125 -8.015625 "/></g></g></g><g fill="#000000" fill-opacity="1"><g transform="translate(212.963268, 320.685272)"><g><path d="M 6.953125 -4.015625 L 7.765625 -4.015625 L 7.765625 -0.953125 C 7.390625 -0.617188 6.945312 -0.363281 6.4375 -0.1875 C 5.925781 -0.0195312 5.390625 0.0625 4.828125 0.0625 C 4.023438 0.0625 3.300781 -0.109375 2.65625 -0.453125 C 2.007812 -0.804688 1.503906 -1.296875 1.140625 -1.921875 C 0.773438 -2.546875 0.59375 -3.242188 0.59375 -4.015625 C 0.59375 -4.785156 0.773438 -5.476562 1.140625 -6.09375 C 1.503906 -6.71875 2.007812 -7.203125 2.65625 -7.546875 C 3.300781 -7.898438 4.023438 -8.078125 4.828125 -8.078125 C 5.441406 -8.078125 6.003906 -7.976562 6.515625 -7.78125 C 7.023438 -7.59375 7.457031 -7.304688 7.8125 -6.921875 L 7.28125 -6.390625 C 6.644531 -7.015625 5.84375 -7.328125 4.875 -7.328125 C 4.21875 -7.328125 3.628906 -7.179688 3.109375 -6.890625 C 2.585938 -6.609375 2.175781 -6.210938 1.875 -5.703125 C 1.582031 -5.203125 1.4375 -4.640625 1.4375 -4.015625 C 1.4375 -3.378906 1.582031 -2.8125 1.875 -2.3125 C 2.175781 -1.8125 2.582031 -1.414062 3.09375 -1.125 C 3.613281 -0.832031 4.203125 -0.6875 4.859375 -0.6875 C 5.679688 -0.6875 6.378906 -0.894531 6.953125 -1.3125 Z M 6.953125 -4.015625 "/></g></g></g><g fill="#000000" fill-opacity="1"><g transform="translate(226.890864, 320.685272)"><g><path d="M 8 -8.015625 L 8 0 L 7.3125 0 L 2.15625 -6.5 L 2.15625 0 L 1.3125 0 L 1.3125 -8.015625 L 2 -8.015625 L 7.171875 -1.515625 L 7.171875 -8.015625 Z M 8 -8.015625 "/></g></g></g><g fill="#000000" fill-opacity="1"><g transform="translate(241.27643, 320.685272)"><g><path d="M 6.96875 -0.734375 L 6.96875 0 L 1.3125 0 L 1.3125 -8.015625 L 6.796875 -8.015625 L 6.796875 -7.28125 L 2.15625 -7.28125 L 2.15625 -4.4375 L 6.296875 -4.4375 L 6.296875 -3.703125 L 2.15625 -3.703125 L 2.15625 -0.734375 Z M 6.96875 -0.734375 "/></g></g></g><g fill="#000000" fill-opacity="1"><g transform="translate(254.013303, 320.685272)"><g><path d="M 6.78125 0 L 4.953125 -2.578125 C 4.742188 -2.554688 4.53125 -2.546875 4.3125 -2.546875 L 2.15625 -2.546875 L 2.15625 0 L 1.3125 0 L 1.3125 -8.015625 L 4.3125 -8.015625 C 5.332031 -8.015625 6.128906 -7.769531 6.703125 -7.28125 C 7.285156 -6.789062 7.578125 -6.117188 7.578125 -5.265625 C 7.578125 -4.640625 7.414062 -4.109375 7.09375 -3.671875 C 6.78125 -3.242188 6.332031 -2.9375 5.75 -2.75 L 7.703125 0 Z M 4.28125 -3.265625 C 5.070312 -3.265625 5.675781 -3.4375 6.09375 -3.78125 C 6.519531 -4.132812 6.734375 -4.628906 6.734375 -5.265625 C 6.734375 -5.910156 6.519531 -6.40625 6.09375 -6.75 C 5.675781 -7.101562 5.070312 -7.28125 4.28125 -7.28125 L 2.15625 -7.28125 L 2.15625 -3.265625 Z M 4.28125 -3.265625 "/></g></g></g><g fill="#000000" fill-opacity="1"><g transform="translate(104.958944, 298.7875)"><g><path d="M 15.046875 -2.234375 C 15.472656 -1.128906 16.085938 -0.5625 16.890625 -0.53125 L 16.890625 0 C 16.179688 -0.0507812 15.234375 -0.078125 14.046875 -0.078125 C 12.523438 -0.078125 11.390625 -0.0507812 10.640625 0 L 10.640625 -0.53125 C 11.316406 -0.5625 11.800781 -0.644531 12.09375 -0.78125 C 12.382812 -0.914062 12.53125 -1.160156 12.53125 -1.515625 C 12.53125 -1.816406 12.425781 -2.234375 12.21875 -2.765625 L 10.59375 -7.109375 L 4.171875 -7.109375 L 3.078125 -4.296875 C 2.722656 -3.335938 2.546875 -2.613281 2.546875 -2.125 C 2.546875 -1.570312 2.734375 -1.171875 3.109375 -0.921875 C 3.492188 -0.679688 4.078125 -0.550781 4.859375 -0.53125 L 4.859375 0 C 3.847656 -0.0507812 2.832031 -0.078125 1.8125 -0.078125 C 1.007812 -0.078125 0.34375 -0.0507812 -0.1875 0 L -0.1875 -0.53125 C 0.695312 -0.738281 1.394531 -1.507812 1.90625 -2.84375 L 8.15625 -18.921875 L 8.578125 -18.921875 Z M 10.375 -7.640625 L 7.40625 -15.578125 L 4.375 -7.640625 Z M 10.375 -7.640625 "/></g></g></g><g fill="#000000" fill-opacity="1"><g transform="translate(121.681005, 298.7875)"><g><path d="M 17.78125 -18.265625 C 17.164062 -18.234375 16.707031 -18.140625 16.40625 -17.984375 C 16.101562 -17.835938 15.898438 -17.585938 15.796875 -17.234375 C 15.691406 -16.890625 15.640625 -16.382812 15.640625 -15.71875 L 15.640625 0.125 L 15.03125 0.125 L 3.875 -17.09375 L 3.875 -3.078125 C 3.875 -2.390625 3.929688 -1.875 4.046875 -1.53125 C 4.160156 -1.195312 4.382812 -0.953125 4.71875 -0.796875 C 5.0625 -0.648438 5.585938 -0.5625 6.296875 -0.53125 L 6.296875 0 C 5.660156 -0.0507812 4.753906 -0.078125 3.578125 -0.078125 C 2.515625 -0.078125 1.691406 -0.0507812 1.109375 0 L 1.109375 -0.53125 C 1.734375 -0.5625 2.195312 -0.648438 2.5 -0.796875 C 2.800781 -0.953125 3.003906 -1.203125 3.109375 -1.546875 C 3.210938 -1.898438 3.265625 -2.410156 3.265625 -3.078125 L 3.265625 -15.984375 C 3.265625 -16.648438 3.210938 -17.132812 3.109375 -17.4375 C 3.003906 -17.738281 2.804688 -17.941406 2.515625 -18.046875 C 2.222656 -18.160156 1.753906 -18.234375 1.109375 -18.265625 L 1.109375 -18.796875 C 1.691406 -18.742188 2.515625 -18.71875 3.578125 -18.71875 C 4.378906 -18.71875 5.070312 -18.742188 5.65625 -18.796875 L 15.03125 -4.359375 L 15.03125 -15.71875 C 15.03125 -16.40625 14.972656 -16.914062 14.859375 -17.25 C 14.742188 -17.59375 14.515625 -17.835938 14.171875 -17.984375 C 13.835938 -18.140625 13.316406 -18.234375 12.609375 -18.265625 L 12.609375 -18.796875 C 13.242188 -18.742188 14.144531 -18.71875 15.3125 -18.71875 C 16.375 -18.71875 17.195312 -18.742188 17.78125 -18.796875 Z M 17.78125 -18.265625 "/></g></g></g><g fill="#000000" fill-opacity="1"><g transform="translate(140.420338, 298.7875)"><g><path d="M 8.359375 -18.796875 C 11.492188 -18.796875 13.835938 -18.007812 15.390625 -16.4375 C 16.953125 -14.875 17.734375 -12.597656 17.734375 -9.609375 C 17.734375 -7.679688 17.351562 -5.988281 16.59375 -4.53125 C 15.832031 -3.082031 14.726562 -1.960938 13.28125 -1.171875 C 11.84375 -0.390625 10.125 0 8.125 0 L 6.578125 -0.03125 C 5.585938 -0.0625 4.863281 -0.078125 4.40625 -0.078125 C 2.957031 -0.078125 1.859375 -0.0507812 1.109375 0 L 1.109375 -0.53125 C 1.753906 -0.5625 2.222656 -0.628906 2.515625 -0.734375 C 2.804688 -0.847656 3.003906 -1.054688 3.109375 -1.359375 C 3.210938 -1.660156 3.265625 -2.144531 3.265625 -2.8125 L 3.265625 -15.984375 C 3.265625 -16.648438 3.210938 -17.132812 3.109375 -17.4375 C 3.003906 -17.738281 2.804688 -17.941406 2.515625 -18.046875 C 2.222656 -18.160156 1.753906 -18.234375 1.109375 -18.265625 L 1.109375 -18.796875 C 1.734375 -18.742188 2.59375 -18.71875 3.6875 -18.71875 L 5.953125 -18.734375 C 7.148438 -18.773438 7.953125 -18.796875 8.359375 -18.796875 Z M 7.703125 -18.3125 C 7.148438 -18.3125 6.734375 -18.25 6.453125 -18.125 C 6.179688 -18.007812 5.992188 -17.789062 5.890625 -17.46875 C 5.785156 -17.144531 5.734375 -16.664062 5.734375 -16.03125 L 5.734375 -2.765625 C 5.734375 -2.128906 5.785156 -1.648438 5.890625 -1.328125 C 5.992188 -1.003906 6.179688 -0.78125 6.453125 -0.65625 C 6.734375 -0.539062 7.15625 -0.484375 7.71875 -0.484375 C 9.601562 -0.484375 11.082031 -0.820312 12.15625 -1.5 C 13.238281 -2.175781 13.992188 -3.171875 14.421875 -4.484375 C 14.859375 -5.796875 15.078125 -7.46875 15.078125 -9.5 C 15.078125 -11.539062 14.835938 -13.203125 14.359375 -14.484375 C 13.878906 -15.765625 13.101562 -16.722656 12.03125 -17.359375 C 10.96875 -17.992188 9.523438 -18.3125 7.703125 -18.3125 Z M 7.703125 -18.3125 "/></g></g></g><g fill="#000000" fill-opacity="1"><g transform="translate(159.6109, 298.7875)"><g><path d="M 17.515625 -1.328125 C 17.109375 -0.722656 16.703125 -0.285156 16.296875 -0.015625 C 15.890625 0.242188 15.351562 0.375 14.6875 0.375 C 13.957031 0.375 13.359375 0.160156 12.890625 -0.265625 C 12.421875 -0.691406 12.070312 -1.4375 11.84375 -2.5 L 11.25 -5.15625 C 11.039062 -6.070312 10.84375 -6.773438 10.65625 -7.265625 C 10.46875 -7.765625 10.1875 -8.164062 9.8125 -8.46875 C 9.445312 -8.769531 8.925781 -8.921875 8.25 -8.921875 L 5.734375 -8.921875 L 5.734375 -2.8125 C 5.734375 -2.144531 5.785156 -1.660156 5.890625 -1.359375 C 5.992188 -1.054688 6.191406 -0.847656 6.484375 -0.734375 C 6.773438 -0.628906 7.242188 -0.5625 7.890625 -0.53125 L 7.890625 0 C 7.066406 -0.0507812 5.941406 -0.078125 4.515625 -0.078125 C 2.992188 -0.078125 1.859375 -0.0507812 1.109375 0 L 1.109375 -0.53125 C 1.753906 -0.5625 2.222656 -0.628906 2.515625 -0.734375 C 2.804688 -0.847656 3.003906 -1.054688 3.109375 -1.359375 C 3.210938 -1.660156 3.265625 -2.144531 3.265625 -2.8125 L 3.265625 -15.984375 C 3.265625 -16.648438 3.210938 -17.132812 3.109375 -17.4375 C 3.003906 -17.738281 2.804688 -17.941406 2.515625 -18.046875 C 2.222656 -18.160156 1.753906 -18.234375 1.109375 -18.265625 L 1.109375 -18.796875 C 1.859375 -18.742188 2.941406 -18.71875 4.359375 -18.71875 L 7.21875 -18.734375 C 7.550781 -18.753906 7.929688 -18.765625 8.359375 -18.765625 C 10.410156 -18.765625 11.988281 -18.332031 13.09375 -17.46875 C 14.207031 -16.613281 14.765625 -15.507812 14.765625 -14.15625 C 14.765625 -13.457031 14.597656 -12.757812 14.265625 -12.0625 C 13.941406 -11.363281 13.394531 -10.734375 12.625 -10.171875 C 11.851562 -9.617188 10.847656 -9.242188 9.609375 -9.046875 L 9.921875 -9 C 11.097656 -8.800781 11.953125 -8.445312 12.484375 -7.9375 C 13.015625 -7.425781 13.398438 -6.613281 13.640625 -5.5 L 14.3125 -2.78125 C 14.488281 -1.96875 14.671875 -1.398438 14.859375 -1.078125 C 15.054688 -0.765625 15.320312 -0.609375 15.65625 -0.609375 C 15.957031 -0.609375 16.207031 -0.6875 16.40625 -0.84375 C 16.613281 -1.007812 16.851562 -1.269531 17.125 -1.625 Z M 7.703125 -18.265625 C 7.148438 -18.265625 6.734375 -18.203125 6.453125 -18.078125 C 6.179688 -17.953125 5.992188 -17.726562 5.890625 -17.40625 C 5.785156 -17.09375 5.734375 -16.617188 5.734375 -15.984375 L 5.734375 -9.453125 L 7.515625 -9.453125 C 9.265625 -9.453125 10.46875 -9.835938 11.125 -10.609375 C 11.78125 -11.390625 12.109375 -12.472656 12.109375 -13.859375 C 12.109375 -15.304688 11.757812 -16.398438 11.0625 -17.140625 C 10.375 -17.890625 9.253906 -18.265625 7.703125 -18.265625 Z M 7.703125 -18.265625 "/></g></g></g><g fill="#000000" fill-opacity="1"><g transform="translate(176.81074, 298.7875)"><g><path d="M 14.703125 -3.390625 C 14.703125 -2.390625 14.765625 -1.257812 14.890625 0 C 13.691406 -0.0507812 11.664062 -0.078125 8.8125 -0.078125 C 5.414062 -0.078125 2.847656 -0.0507812 1.109375 0 L 1.109375 -0.53125 C 1.753906 -0.5625 2.222656 -0.628906 2.515625 -0.734375 C 2.804688 -0.847656 3.003906 -1.054688 3.109375 -1.359375 C 3.210938 -1.660156 3.265625 -2.144531 3.265625 -2.8125 L 3.265625 -15.984375 C 3.265625 -16.648438 3.210938 -17.132812 3.109375 -17.4375 C 3.003906 -17.738281 2.804688 -17.941406 2.515625 -18.046875 C 2.222656 -18.160156 1.753906 -18.234375 1.109375 -18.265625 L 1.109375 -18.796875 C 2.847656 -18.742188 5.414062 -18.71875 8.8125 -18.71875 C 11.414062 -18.71875 13.265625 -18.742188 14.359375 -18.796875 C 14.234375 -17.628906 14.171875 -16.582031 14.171875 -15.65625 C 14.171875 -14.96875 14.195312 -14.421875 14.25 -14.015625 L 13.640625 -14.015625 C 13.515625 -15.171875 13.351562 -16.023438 13.15625 -16.578125 C 12.96875 -17.140625 12.644531 -17.546875 12.1875 -17.796875 C 11.726562 -18.054688 11.03125 -18.1875 10.09375 -18.1875 L 7.890625 -18.1875 C 7.242188 -18.1875 6.773438 -18.132812 6.484375 -18.03125 C 6.191406 -17.9375 5.992188 -17.738281 5.890625 -17.4375 C 5.785156 -17.132812 5.734375 -16.648438 5.734375 -15.984375 L 5.734375 -9.71875 L 7.484375 -9.71875 C 8.109375 -9.71875 8.585938 -9.863281 8.921875 -10.15625 C 9.253906 -10.445312 9.476562 -10.789062 9.59375 -11.1875 C 9.707031 -11.582031 9.800781 -12.082031 9.875 -12.6875 L 9.953125 -13.21875 L 10.5625 -13.21875 C 10.507812 -12.476562 10.484375 -11.644531 10.484375 -10.71875 L 10.484375 -9.453125 C 10.484375 -8.546875 10.535156 -7.289062 10.640625 -5.6875 L 10.03125 -5.6875 C 10.019531 -5.800781 9.96875 -6.222656 9.875 -6.953125 C 9.789062 -7.691406 9.546875 -8.25 9.140625 -8.625 C 8.742188 -9 8.191406 -9.1875 7.484375 -9.1875 L 5.734375 -9.1875 L 5.734375 -2.8125 C 5.734375 -2.144531 5.785156 -1.660156 5.890625 -1.359375 C 5.992188 -1.054688 6.191406 -0.851562 6.484375 -0.75 C 6.773438 -0.65625 7.242188 -0.609375 7.890625 -0.609375 L 9.828125 -0.609375 C 10.921875 -0.609375 11.753906 -0.753906 12.328125 -1.046875 C 12.898438 -1.335938 13.316406 -1.804688 13.578125 -2.453125 C 13.847656 -3.097656 14.046875 -4.050781 14.171875 -5.3125 L 14.78125 -5.3125 C 14.726562 -4.832031 14.703125 -4.191406 14.703125 -3.390625 Z M 14.703125 -3.390625 "/></g></g></g><g fill="#000000" fill-opacity="1"><g transform="translate(192.975404, 298.7875)"><g/></g></g><g fill="#000000" fill-opacity="1"><g transform="translate(199.584595, 298.7875)"><g><path d="M 5.734375 -7.59375 L 5.734375 -2.8125 C 5.734375 -2.144531 5.800781 -1.660156 5.9375 -1.359375 C 6.082031 -1.054688 6.332031 -0.847656 6.6875 -0.734375 C 7.039062 -0.628906 7.617188 -0.5625 8.421875 -0.53125 L 8.421875 0 C 7.492188 -0.0507812 6.191406 -0.078125 4.515625 -0.078125 C 2.992188 -0.078125 1.859375 -0.0507812 1.109375 0 L 1.109375 -0.53125 C 1.753906 -0.5625 2.222656 -0.628906 2.515625 -0.734375 C 2.804688 -0.847656 3.003906 -1.054688 3.109375 -1.359375 C 3.210938 -1.660156 3.265625 -2.144531 3.265625 -2.8125 L 3.265625 -15.984375 C 3.265625 -16.648438 3.210938 -17.132812 3.109375 -17.4375 C 3.003906 -17.738281 2.804688 -17.941406 2.515625 -18.046875 C 2.222656 -18.160156 1.753906 -18.234375 1.109375 -18.265625 L 1.109375 -18.796875 C 1.859375 -18.742188 2.941406 -18.71875 4.359375 -18.71875 L 7.21875 -18.734375 C 7.550781 -18.753906 7.929688 -18.765625 8.359375 -18.765625 C 10.429688 -18.765625 12.015625 -18.289062 13.109375 -17.34375 C 14.210938 -16.394531 14.765625 -15.125 14.765625 -13.53125 C 14.765625 -12.5625 14.546875 -11.628906 14.109375 -10.734375 C 13.671875 -9.835938 12.9375 -9.085938 11.90625 -8.484375 C 10.875 -7.890625 9.5 -7.59375 7.78125 -7.59375 Z M 7.703125 -18.265625 C 7.148438 -18.265625 6.734375 -18.203125 6.453125 -18.078125 C 6.179688 -17.953125 5.992188 -17.726562 5.890625 -17.40625 C 5.785156 -17.09375 5.734375 -16.617188 5.734375 -15.984375 L 5.734375 -8.125 L 7.515625 -8.125 C 9.242188 -8.125 10.441406 -8.585938 11.109375 -9.515625 C 11.773438 -10.441406 12.109375 -11.6875 12.109375 -13.25 C 12.109375 -14.96875 11.765625 -16.234375 11.078125 -17.046875 C 10.398438 -17.859375 9.273438 -18.265625 7.703125 -18.265625 Z M 7.703125 -18.265625 "/></g></g></g><g fill="#000000" fill-opacity="1"><g transform="translate(215.112224, 298.7875)"><g><path d="M 9.84375 -19.171875 C 11.53125 -19.171875 13.003906 -18.789062 14.265625 -18.03125 C 15.535156 -17.269531 16.519531 -16.164062 17.21875 -14.71875 C 17.914062 -13.28125 18.265625 -11.5625 18.265625 -9.5625 C 18.265625 -7.613281 17.90625 -5.882812 17.1875 -4.375 C 16.46875 -2.875 15.46875 -1.707031 14.1875 -0.875 C 12.90625 -0.0390625 11.453125 0.375 9.828125 0.375 C 8.140625 0.375 6.660156 -0.00390625 5.390625 -0.765625 C 4.128906 -1.523438 3.148438 -2.625 2.453125 -4.0625 C 1.753906 -5.507812 1.40625 -7.234375 1.40625 -9.234375 C 1.40625 -11.179688 1.765625 -12.90625 2.484375 -14.40625 C 3.203125 -15.914062 4.203125 -17.085938 5.484375 -17.921875 C 6.765625 -18.753906 8.21875 -19.171875 9.84375 -19.171875 Z M 9.75 -18.6875 C 8.613281 -18.6875 7.613281 -18.289062 6.75 -17.5 C 5.894531 -16.71875 5.234375 -15.617188 4.765625 -14.203125 C 4.296875 -12.785156 4.0625 -11.164062 4.0625 -9.34375 C 4.0625 -7.5 4.320312 -5.878906 4.84375 -4.484375 C 5.363281 -3.085938 6.066406 -2.007812 6.953125 -1.25 C 7.835938 -0.488281 8.828125 -0.109375 9.921875 -0.109375 C 11.054688 -0.109375 12.050781 -0.5 12.90625 -1.28125 C 13.769531 -2.070312 14.4375 -3.175781 14.90625 -4.59375 C 15.375 -6.007812 15.609375 -7.628906 15.609375 -9.453125 C 15.609375 -11.296875 15.347656 -12.914062 14.828125 -14.3125 C 14.304688 -15.707031 13.601562 -16.785156 12.71875 -17.546875 C 11.832031 -18.304688 10.84375 -18.6875 9.75 -18.6875 Z M 9.75 -18.6875 "/></g></g></g><g fill="#000000" fill-opacity="1"><g transform="translate(234.780554, 298.7875)"><g><path d="M 17.78125 -18.265625 C 17.164062 -18.234375 16.707031 -18.140625 16.40625 -17.984375 C 16.101562 -17.835938 15.898438 -17.585938 15.796875 -17.234375 C 15.691406 -16.890625 15.640625 -16.382812 15.640625 -15.71875 L 15.640625 0.125 L 15.03125 0.125 L 3.875 -17.09375 L 3.875 -3.078125 C 3.875 -2.390625 3.929688 -1.875 4.046875 -1.53125 C 4.160156 -1.195312 4.382812 -0.953125 4.71875 -0.796875 C 5.0625 -0.648438 5.585938 -0.5625 6.296875 -0.53125 L 6.296875 0 C 5.660156 -0.0507812 4.753906 -0.078125 3.578125 -0.078125 C 2.515625 -0.078125 1.691406 -0.0507812 1.109375 0 L 1.109375 -0.53125 C 1.734375 -0.5625 2.195312 -0.648438 2.5 -0.796875 C 2.800781 -0.953125 3.003906 -1.203125 3.109375 -1.546875 C 3.210938 -1.898438 3.265625 -2.410156 3.265625 -3.078125 L 3.265625 -15.984375 C 3.265625 -16.648438 3.210938 -17.132812 3.109375 -17.4375 C 3.003906 -17.738281 2.804688 -17.941406 2.515625 -18.046875 C 2.222656 -18.160156 1.753906 -18.234375 1.109375 -18.265625 L 1.109375 -18.796875 C 1.691406 -18.742188 2.515625 -18.71875 3.578125 -18.71875 C 4.378906 -18.71875 5.070312 -18.742188 5.65625 -18.796875 L 15.03125 -4.359375 L 15.03125 -15.71875 C 15.03125 -16.40625 14.972656 -16.914062 14.859375 -17.25 C 14.742188 -17.59375 14.515625 -17.835938 14.171875 -17.984375 C 13.835938 -18.140625 13.316406 -18.234375 12.609375 -18.265625 L 12.609375 -18.796875 C 13.242188 -18.742188 14.144531 -18.71875 15.3125 -18.71875 C 16.375 -18.71875 17.195312 -18.742188 17.78125 -18.796875 Z M 17.78125 -18.265625 "/></g></g></g><g fill="#000000" fill-opacity="1"><g transform="translate(253.519887, 298.7875)"><g><path d="M 9.84375 -19.171875 C 10.90625 -19.171875 11.804688 -19.019531 12.546875 -18.71875 C 13.296875 -18.414062 14.023438 -17.988281 14.734375 -17.4375 C 14.929688 -17.28125 15.097656 -17.203125 15.234375 -17.203125 C 15.585938 -17.203125 15.816406 -17.734375 15.921875 -18.796875 L 16.53125 -18.796875 C 16.46875 -17.640625 16.4375 -15.601562 16.4375 -12.6875 L 15.828125 -12.6875 C 15.628906 -13.84375 15.445312 -14.671875 15.28125 -15.171875 C 15.125 -15.671875 14.863281 -16.15625 14.5 -16.625 C 13.96875 -17.3125 13.289062 -17.828125 12.46875 -18.171875 C 11.644531 -18.515625 10.753906 -18.6875 9.796875 -18.6875 C 8.640625 -18.6875 7.632812 -18.304688 6.78125 -17.546875 C 5.925781 -16.785156 5.257812 -15.703125 4.78125 -14.296875 C 4.300781 -12.890625 4.0625 -11.238281 4.0625 -9.34375 C 4.0625 -7.414062 4.316406 -5.757812 4.828125 -4.375 C 5.335938 -3 6.046875 -1.953125 6.953125 -1.234375 C 7.867188 -0.515625 8.90625 -0.15625 10.0625 -0.15625 C 10.945312 -0.15625 11.804688 -0.320312 12.640625 -0.65625 C 13.472656 -1 14.125 -1.503906 14.59375 -2.171875 C 14.945312 -2.671875 15.203125 -3.203125 15.359375 -3.765625 C 15.523438 -4.335938 15.679688 -5.207031 15.828125 -6.375 L 16.4375 -6.375 C 16.4375 -3.332031 16.46875 -1.207031 16.53125 0 L 15.921875 0 C 15.867188 -0.5625 15.796875 -0.960938 15.703125 -1.203125 C 15.609375 -1.441406 15.472656 -1.5625 15.296875 -1.5625 C 15.148438 -1.5625 14.960938 -1.492188 14.734375 -1.359375 C 13.929688 -0.785156 13.164062 -0.351562 12.4375 -0.0625 C 11.71875 0.226562 10.847656 0.375 9.828125 0.375 C 8.140625 0.375 6.660156 -0.00390625 5.390625 -0.765625 C 4.128906 -1.523438 3.148438 -2.625 2.453125 -4.0625 C 1.753906 -5.507812 1.40625 -7.234375 1.40625 -9.234375 C 1.40625 -11.179688 1.765625 -12.90625 2.484375 -14.40625 C 3.203125 -15.914062 4.203125 -17.085938 5.484375 -17.921875 C 6.765625 -18.753906 8.21875 -19.171875 9.84375 -19.171875 Z M 9.84375 -19.171875 "/></g></g></g><g fill="#000000" fill-opacity="1"><g transform="translate(271.781441, 298.7875)"><g><path d="M 14.703125 -3.390625 C 14.703125 -2.390625 14.765625 -1.257812 14.890625 0 C 13.691406 -0.0507812 11.664062 -0.078125 8.8125 -0.078125 C 5.414062 -0.078125 2.847656 -0.0507812 1.109375 0 L 1.109375 -0.53125 C 1.753906 -0.5625 2.222656 -0.628906 2.515625 -0.734375 C 2.804688 -0.847656 3.003906 -1.054688 3.109375 -1.359375 C 3.210938 -1.660156 3.265625 -2.144531 3.265625 -2.8125 L 3.265625 -15.984375 C 3.265625 -16.648438 3.210938 -17.132812 3.109375 -17.4375 C 3.003906 -17.738281 2.804688 -17.941406 2.515625 -18.046875 C 2.222656 -18.160156 1.753906 -18.234375 1.109375 -18.265625 L 1.109375 -18.796875 C 2.847656 -18.742188 5.414062 -18.71875 8.8125 -18.71875 C 11.414062 -18.71875 13.265625 -18.742188 14.359375 -18.796875 C 14.234375 -17.628906 14.171875 -16.582031 14.171875 -15.65625 C 14.171875 -14.96875 14.195312 -14.421875 14.25 -14.015625 L 13.640625 -14.015625 C 13.515625 -15.171875 13.351562 -16.023438 13.15625 -16.578125 C 12.96875 -17.140625 12.644531 -17.546875 12.1875 -17.796875 C 11.726562 -18.054688 11.03125 -18.1875 10.09375 -18.1875 L 7.890625 -18.1875 C 7.242188 -18.1875 6.773438 -18.132812 6.484375 -18.03125 C 6.191406 -17.9375 5.992188 -17.738281 5.890625 -17.4375 C 5.785156 -17.132812 5.734375 -16.648438 5.734375 -15.984375 L 5.734375 -9.71875 L 7.484375 -9.71875 C 8.109375 -9.71875 8.585938 -9.863281 8.921875 -10.15625 C 9.253906 -10.445312 9.476562 -10.789062 9.59375 -11.1875 C 9.707031 -11.582031 9.800781 -12.082031 9.875 -12.6875 L 9.953125 -13.21875 L 10.5625 -13.21875 C 10.507812 -12.476562 10.484375 -11.644531 10.484375 -10.71875 L 10.484375 -9.453125 C 10.484375 -8.546875 10.535156 -7.289062 10.640625 -5.6875 L 10.03125 -5.6875 C 10.019531 -5.800781 9.96875 -6.222656 9.875 -6.953125 C 9.789062 -7.691406 9.546875 -8.25 9.140625 -8.625 C 8.742188 -9 8.191406 -9.1875 7.484375 -9.1875 L 5.734375 -9.1875 L 5.734375 -2.8125 C 5.734375 -2.144531 5.785156 -1.660156 5.890625 -1.359375 C 5.992188 -1.054688 6.191406 -0.851562 6.484375 -0.75 C 6.773438 -0.65625 7.242188 -0.609375 7.890625 -0.609375 L 9.828125 -0.609375 C 10.921875 -0.609375 11.753906 -0.753906 12.328125 -1.046875 C 12.898438 -1.335938 13.316406 -1.804688 13.578125 -2.453125 C 13.847656 -3.097656 14.046875 -4.050781 14.171875 -5.3125 L 14.78125 -5.3125 C 14.726562 -4.832031 14.703125 -4.191406 14.703125 -3.390625 Z M 14.703125 -3.390625 "/></g></g></g></svg>