<svg xmlns="http://www.w3.org/2000/svg" xmlns:xlink="http://www.w3.org/1999/xlink" width="500" zoomAndPan="magnify" viewBox="0 0 375 374.999991" height="500" preserveAspectRatio="xMidYMid meet" version="1.0"><defs><g/><clipPath id="e251cb970f"><path d="M 102.144531 125.578125 L 187.636719 125.578125 L 187.636719 211.828125 L 102.144531 211.828125 Z M 102.144531 125.578125 " clip-rule="nonzero"/></clipPath><clipPath id="f5e90df951"><path d="M 186.027344 125.578125 L 272.859375 125.578125 L 272.859375 211.605469 L 186.027344 211.605469 Z M 186.027344 125.578125 " clip-rule="nonzero"/></clipPath></defs><g clip-path="url(#e251cb970f)"><path stroke-linecap="butt" transform="matrix(0.751236, 0, 0, 0.752044, 102.142819, 125.579713)" fill="none" stroke-linejoin="miter" d="M 0.00227872 -0.00211205 L 113.804382 -0.00211205 L 113.804382 114.685399 L 0.00227872 114.685399 L 0.00227872 -0.00211205 " stroke="#000000" stroke-width="6" stroke-opacity="1" stroke-miterlimit="4"/></g><g clip-path="url(#f5e90df951)"><path fill="#000000" d="M 186.027344 125.578125 L 272.367188 125.578125 L 272.367188 211.921875 L 186.027344 211.921875 Z M 186.027344 125.578125 " fill-opacity="1" fill-rule="nonzero"/></g><g fill="#000000" fill-opacity="1"><g transform="translate(109.659547, 198.675851)"><g><path d="M 48.359375 0 L 45.734375 -8.765625 L 23.953125 -8.765625 L 21.328125 0 L 0.90625 0 L 23.59375 -62.1875 L 46.828125 -62.1875 L 69.515625 0 Z M 28.109375 -22.6875 L 41.578125 -22.6875 L 35.078125 -44.828125 L 34.703125 -44.828125 Z M 28.109375 -22.6875 "/></g></g></g><g fill="#ffffff" fill-opacity="1"><g transform="translate(197.554679, 199.346281)"><g><path d="M 41.578125 -62.1875 C 45.429688 -62.1875 48.863281 -61.296875 51.875 -59.515625 C 54.894531 -57.742188 57.25 -55.304688 58.9375 -52.203125 C 60.625 -49.097656 61.46875 -45.617188 61.46875 -41.765625 L 61.46875 -40.578125 C 61.46875 -36.722656 60.625 -33.226562 58.9375 -30.09375 C 57.25 -26.96875 54.894531 -24.515625 51.875 -22.734375 C 48.863281 -20.953125 45.429688 -20.0625 41.578125 -20.0625 L 26.671875 -20.0625 L 26.671875 0 L 6.6875 0 L 6.6875 -62.1875 Z M 26.671875 -34.625 L 34.890625 -34.625 C 36.992188 -34.625 38.570312 -35.164062 39.625 -36.25 C 40.6875 -37.332031 41.21875 -38.804688 41.21875 -40.671875 L 41.21875 -41.40625 C 41.21875 -43.332031 40.6875 -44.820312 39.625 -45.875 C 38.570312 -46.925781 36.992188 -47.453125 34.890625 -47.453125 L 26.671875 -47.453125 Z M 26.671875 -34.625 "/></g></g></g><g fill="#000000" fill-opacity="1"><g transform="translate(104.888758, 235.772769)"><g><path d="M 11.546875 -3.421875 L 4.171875 -3.421875 L 2.71875 0 L -0.109375 0 L 6.53125 -14.75 L 9.234375 -14.75 L 15.890625 0 L 13.03125 0 Z M 10.640625 -5.5625 L 7.859375 -12.015625 L 5.09375 -5.5625 Z M 10.640625 -5.5625 "/></g></g></g><g fill="#000000" fill-opacity="1"><g transform="translate(120.679166, 235.772769)"><g><path d="M 15.09375 -14.75 L 15.09375 0 L 12.84375 0 L 4.703125 -9.984375 L 4.703125 0 L 1.984375 0 L 1.984375 -14.75 L 4.234375 -14.75 L 12.375 -4.765625 L 12.375 -14.75 Z M 15.09375 -14.75 "/></g></g></g><g fill="#000000" fill-opacity="1"><g transform="translate(137.75557, 235.772769)"><g><path d="M 1.984375 -14.75 L 8.4375 -14.75 C 10.007812 -14.75 11.40625 -14.441406 12.625 -13.828125 C 13.84375 -13.222656 14.789062 -12.359375 15.46875 -11.234375 C 16.144531 -10.117188 16.484375 -8.832031 16.484375 -7.375 C 16.484375 -5.914062 16.144531 -4.625 15.46875 -3.5 C 14.789062 -2.382812 13.84375 -1.519531 12.625 -0.90625 C 11.40625 -0.300781 10.007812 0 8.4375 0 L 1.984375 0 Z M 8.3125 -2.3125 C 9.382812 -2.3125 10.332031 -2.519531 11.15625 -2.9375 C 11.976562 -3.351562 12.609375 -3.941406 13.046875 -4.703125 C 13.492188 -5.472656 13.71875 -6.363281 13.71875 -7.375 C 13.71875 -8.382812 13.492188 -9.269531 13.046875 -10.03125 C 12.609375 -10.800781 11.976562 -11.394531 11.15625 -11.8125 C 10.332031 -12.226562 9.382812 -12.4375 8.3125 -12.4375 L 4.71875 -12.4375 L 4.71875 -2.3125 Z M 8.3125 -2.3125 "/></g></g></g><g fill="#000000" fill-opacity="1"><g transform="translate(155.169287, 235.772769)"><g><path d="M 11.640625 0 L 8.625 -4.328125 C 8.5 -4.304688 8.304688 -4.296875 8.046875 -4.296875 L 4.71875 -4.296875 L 4.71875 0 L 1.984375 0 L 1.984375 -14.75 L 8.046875 -14.75 C 9.328125 -14.75 10.441406 -14.535156 11.390625 -14.109375 C 12.335938 -13.691406 13.0625 -13.085938 13.5625 -12.296875 C 14.070312 -11.515625 14.328125 -10.582031 14.328125 -9.5 C 14.328125 -8.394531 14.054688 -7.441406 13.515625 -6.640625 C 12.972656 -5.835938 12.195312 -5.238281 11.1875 -4.84375 L 14.59375 0 Z M 11.578125 -9.5 C 11.578125 -10.445312 11.265625 -11.171875 10.640625 -11.671875 C 10.023438 -12.179688 9.117188 -12.4375 7.921875 -12.4375 L 4.71875 -12.4375 L 4.71875 -6.5625 L 7.921875 -6.5625 C 9.117188 -6.5625 10.023438 -6.816406 10.640625 -7.328125 C 11.265625 -7.835938 11.578125 -8.5625 11.578125 -9.5 Z M 11.578125 -9.5 "/></g></g></g><g fill="#000000" fill-opacity="1"><g transform="translate(170.580221, 235.772769)"><g><path d="M 13.046875 -2.296875 L 13.046875 0 L 1.984375 0 L 1.984375 -14.75 L 12.75 -14.75 L 12.75 -12.453125 L 4.71875 -12.453125 L 4.71875 -8.625 L 11.84375 -8.625 L 11.84375 -6.359375 L 4.71875 -6.359375 L 4.71875 -2.296875 Z M 13.046875 -2.296875 "/></g></g></g><g fill="#000000" fill-opacity="1"><g transform="translate(184.705148, 235.772769)"><g/></g></g><g fill="#000000" fill-opacity="1"><g transform="translate(190.52377, 235.772769)"><g><path d="M 8.046875 -14.75 C 9.328125 -14.75 10.441406 -14.535156 11.390625 -14.109375 C 12.335938 -13.691406 13.0625 -13.085938 13.5625 -12.296875 C 14.070312 -11.515625 14.328125 -10.582031 14.328125 -9.5 C 14.328125 -8.4375 14.070312 -7.503906 13.5625 -6.703125 C 13.0625 -5.910156 12.335938 -5.300781 11.390625 -4.875 C 10.441406 -4.457031 9.328125 -4.25 8.046875 -4.25 L 4.71875 -4.25 L 4.71875 0 L 1.984375 0 L 1.984375 -14.75 Z M 7.921875 -6.578125 C 9.117188 -6.578125 10.023438 -6.828125 10.640625 -7.328125 C 11.265625 -7.835938 11.578125 -8.5625 11.578125 -9.5 C 11.578125 -10.445312 11.265625 -11.171875 10.640625 -11.671875 C 10.023438 -12.179688 9.117188 -12.4375 7.921875 -12.4375 L 4.71875 -12.4375 L 4.71875 -6.578125 Z M 7.921875 -6.578125 "/></g></g></g><g fill="#000000" fill-opacity="1"><g transform="translate(205.829292, 235.772769)"><g><path d="M 8.875 0.203125 C 7.375 0.203125 6.019531 -0.117188 4.8125 -0.765625 C 3.601562 -1.421875 2.648438 -2.328125 1.953125 -3.484375 C 1.265625 -4.648438 0.921875 -5.945312 0.921875 -7.375 C 0.921875 -8.8125 1.265625 -10.109375 1.953125 -11.265625 C 2.648438 -12.421875 3.601562 -13.328125 4.8125 -13.984375 C 6.019531 -14.640625 7.375 -14.96875 8.875 -14.96875 C 10.375 -14.96875 11.726562 -14.640625 12.9375 -13.984375 C 14.144531 -13.328125 15.09375 -12.421875 15.78125 -11.265625 C 16.476562 -10.117188 16.828125 -8.820312 16.828125 -7.375 C 16.828125 -5.925781 16.476562 -4.625 15.78125 -3.46875 C 15.09375 -2.320312 14.144531 -1.421875 12.9375 -0.765625 C 11.726562 -0.117188 10.375 0.203125 8.875 0.203125 Z M 8.875 -2.1875 C 9.851562 -2.1875 10.734375 -2.40625 11.515625 -2.84375 C 12.304688 -3.289062 12.925781 -3.910156 13.375 -4.703125 C 13.832031 -5.503906 14.0625 -6.394531 14.0625 -7.375 C 14.0625 -8.363281 13.832031 -9.253906 13.375 -10.046875 C 12.925781 -10.835938 12.304688 -11.453125 11.515625 -11.890625 C 10.734375 -12.335938 9.851562 -12.5625 8.875 -12.5625 C 7.882812 -12.5625 6.992188 -12.335938 6.203125 -11.890625 C 5.421875 -11.453125 4.804688 -10.835938 4.359375 -10.046875 C 3.910156 -9.253906 3.6875 -8.363281 3.6875 -7.375 C 3.6875 -6.394531 3.910156 -5.503906 4.359375 -4.703125 C 4.804688 -3.910156 5.421875 -3.289062 6.203125 -2.84375 C 6.992188 -2.40625 7.882812 -2.1875 8.875 -2.1875 Z M 8.875 -2.1875 "/></g></g></g><g fill="#000000" fill-opacity="1"><g transform="translate(223.580325, 235.772769)"><g><path d="M 15.09375 -14.75 L 15.09375 0 L 12.84375 0 L 4.703125 -9.984375 L 4.703125 0 L 1.984375 0 L 1.984375 -14.75 L 4.234375 -14.75 L 12.375 -4.765625 L 12.375 -14.75 Z M 15.09375 -14.75 "/></g></g></g><g fill="#000000" fill-opacity="1"><g transform="translate(240.656728, 235.772769)"><g><path d="M 8.8125 0.203125 C 7.320312 0.203125 5.972656 -0.117188 4.765625 -0.765625 C 3.566406 -1.421875 2.625 -2.320312 1.9375 -3.46875 C 1.257812 -4.625 0.921875 -5.925781 0.921875 -7.375 C 0.921875 -8.820312 1.265625 -10.117188 1.953125 -11.265625 C 2.648438 -12.421875 3.597656 -13.328125 4.796875 -13.984375 C 5.992188 -14.640625 7.335938 -14.96875 8.828125 -14.96875 C 10.035156 -14.96875 11.140625 -14.753906 12.140625 -14.328125 C 13.140625 -13.910156 13.984375 -13.300781 14.671875 -12.5 L 12.90625 -10.828125 C 11.832031 -11.984375 10.515625 -12.5625 8.953125 -12.5625 C 7.941406 -12.5625 7.035156 -12.335938 6.234375 -11.890625 C 5.429688 -11.453125 4.804688 -10.835938 4.359375 -10.046875 C 3.910156 -9.265625 3.6875 -8.375 3.6875 -7.375 C 3.6875 -6.375 3.910156 -5.476562 4.359375 -4.6875 C 4.804688 -3.90625 5.429688 -3.289062 6.234375 -2.84375 C 7.035156 -2.40625 7.941406 -2.1875 8.953125 -2.1875 C 10.515625 -2.1875 11.832031 -2.769531 12.90625 -3.9375 L 14.671875 -2.25 C 13.984375 -1.445312 13.132812 -0.835938 12.125 -0.421875 C 11.125 -0.00390625 10.019531 0.203125 8.8125 0.203125 Z M 8.8125 0.203125 "/></g></g></g><g fill="#000000" fill-opacity="1"><g transform="translate(255.98333, 235.772769)"><g><path d="M 13.046875 -2.296875 L 13.046875 0 L 1.984375 0 L 1.984375 -14.75 L 12.75 -14.75 L 12.75 -12.453125 L 4.71875 -12.453125 L 4.71875 -8.625 L 11.84375 -8.625 L 11.84375 -6.359375 L 4.71875 -6.359375 L 4.71875 -2.296875 Z M 13.046875 -2.296875 "/></g></g></g></svg>